<?xml version="1.0" encoding="UTF-8" standalone="no"?>
<!DOCTYPE svg PUBLIC "-//W3C//DTD SVG 1.1//EN" "http://www.w3.org/Graphics/SVG/1.1/DTD/svg11.dtd">
<svg width="100%" height="100%" viewBox="0 0 1869 826" version="1.1" xmlns="http://www.w3.org/2000/svg" xmlns:xlink="http://www.w3.org/1999/xlink" xml:space="preserve" xmlns:serif="http://www.serif.com/" style="fill-rule:evenodd;clip-rule:evenodd;stroke-linejoin:round;stroke-miterlimit:2;">
    <g id="Text---Icon-Logo" serif:id="Text &amp; Icon Logo" transform="matrix(1.94389,0,0,1.9439,-1548.53,-1151.47)">
        <g id="SS-Text" serif:id="SS Text">
            <g id="HomeBodySoul" transform="matrix(1,0,0,1,0,9.55299)">
                <g transform="matrix(1,0,0,1,758.405,-29.7958)">
                    <path d="M719.36,998.94L716.436,997.625C712.561,995.87 707.222,993.823 707.222,988.996C707.222,985.194 710.31,981.268 715.94,981.268C720.694,981.268 724.514,985.784 727.073,987.905L728.646,984.024C725.576,982.196 720.896,980.807 716.289,980.807C709.415,980.807 704.151,984.244 704.151,990.093C704.151,996.236 709.855,998.796 715.046,1001.13L717.971,1002.45C722.578,1004.5 727.112,1006.55 727.112,1011.52C727.112,1016.42 722.76,1020.31 716.691,1020.31C711.28,1020.31 708.263,1015.73 705.118,1012.59L703.273,1016.93C707.514,1019.78 712.267,1020.88 716.435,1020.88C724.478,1020.88 730.109,1016.86 730.109,1010.35C730.109,1003.77 724.259,1001.13 719.36,998.94L719.36,998.94Z" style="fill-rule:nonzero;"/>
                    <path d="M716.647,997.156L719.571,998.471C722.063,999.587 724.793,1000.82 726.904,1002.61C729.089,1004.45 730.623,1006.88 730.623,1010.35C730.623,1017.13 724.814,1021.39 716.435,1021.39C712.176,1021.39 707.32,1020.27 702.986,1017.36C702.782,1017.22 702.703,1016.96 702.8,1016.73L704.645,1012.39C704.712,1012.23 704.852,1012.12 705.02,1012.08C705.188,1012.05 705.361,1012.1 705.482,1012.22C707.045,1013.79 708.574,1015.71 710.386,1017.24C712.12,1018.7 714.119,1019.8 716.691,1019.8C722.437,1019.8 726.597,1016.16 726.597,1011.52C726.597,1009.21 725.534,1007.58 723.945,1006.29C722.268,1004.92 720.023,1003.93 717.762,1002.92L717.76,1002.92L714.835,1001.6C712.198,1000.42 709.434,999.166 707.326,997.438C705.133,995.642 703.636,993.338 703.636,990.093C703.636,983.968 709.091,980.292 716.289,980.292C720.994,980.292 725.773,981.715 728.91,983.582C729.128,983.712 729.219,983.982 729.123,984.218L727.55,988.098C727.488,988.25 727.357,988.363 727.198,988.404C727.039,988.444 726.871,988.405 726.745,988.301C725.471,987.245 723.883,985.592 722.022,984.204C720.241,982.875 718.205,981.783 715.94,981.783C710.661,981.783 707.737,985.431 707.737,988.996C707.737,991.232 708.995,992.811 710.68,994.047C712.471,995.361 714.74,996.292 716.647,997.156ZM719.15,999.41C719.149,999.409 719.149,999.409 719.149,999.409L716.225,998.094L716.223,998.093C714.256,997.202 711.919,996.232 710.072,994.877C708.119,993.444 706.708,991.587 706.708,988.996C706.708,986.536 707.914,984.015 710.208,982.42C706.852,983.799 704.665,986.434 704.665,990.093C704.665,992.991 706.02,995.039 707.978,996.642C710.02,998.315 712.703,999.515 715.257,1000.67L718.181,1001.98C720.528,1003.02 722.852,1004.07 724.594,1005.49C726.423,1006.98 727.626,1008.86 727.626,1011.52C727.626,1014.81 725.779,1017.69 722.785,1019.34C726.968,1017.82 729.595,1014.68 729.595,1010.35C729.595,1007.23 728.204,1005.05 726.239,1003.39C724.2,1001.67 721.556,1000.49 719.15,999.41ZM713.091,1020.12C711.85,1019.62 710.743,1018.88 709.723,1018.02C708.095,1016.65 706.69,1014.97 705.29,1013.5L703.915,1016.74C706.864,1018.64 710.049,1019.69 713.091,1020.12ZM719.552,981.546C720.647,982.018 721.677,982.663 722.637,983.379C724.261,984.59 725.68,986 726.865,987.048L728.001,984.246C725.757,982.991 722.738,981.978 719.552,981.546ZM719.36,999.455C719.36,999.455 719.016,998.529 718.932,998.655L719.36,999.455Z"/>
                    <path d="M771.238,986.322C763.417,978.502 750.689,978.503 742.862,986.327C735.041,994.149 735.041,1006.88 742.862,1014.7C746.651,1018.49 751.689,1020.57 757.048,1020.57C762.407,1020.57 767.445,1018.49 771.234,1014.7C775.024,1010.91 777.111,1005.87 777.112,1000.51C777.112,995.15 775.026,990.111 771.238,986.322L771.238,986.322ZM770.507,1013.97C764.084,1020.4 753.129,1019.5 745.568,1011.94C738.034,1004.41 737.164,993.476 743.588,987.053C746.476,984.165 750.271,982.75 754.26,982.75C759.145,982.75 764.321,984.875 768.463,989.017C772.087,992.64 774.301,997.211 774.697,1001.89C775.097,1006.58 773.608,1010.87 770.507,1013.97L770.507,1013.97Z" style="fill-rule:nonzero;"/>
                    <path d="M771.602,985.959C775.487,989.844 777.627,995.012 777.627,1000.51C777.626,1006 775.485,1011.17 771.597,1015.06C767.712,1018.95 762.545,1021.09 757.048,1021.09C751.551,1021.09 746.384,1018.95 742.499,1015.06C734.477,1007.04 734.477,993.986 742.499,985.963C750.526,977.938 763.58,977.938 771.602,985.959ZM770.874,986.686C763.383,979.196 751.273,979.069 743.62,986.308C746.552,983.578 750.314,982.236 754.26,982.236C759.269,982.236 764.579,984.406 768.826,988.654C772.541,992.366 774.803,997.052 775.21,1001.84C775.608,1006.52 774.188,1010.8 771.216,1013.98C774.69,1010.33 776.597,1005.57 776.598,1000.51C776.598,995.287 774.565,990.377 770.874,986.686ZM770.491,1014.7C763.836,1020.91 752.837,1019.94 745.204,1012.31C737.602,1004.71 736.649,993.734 742.849,987.078C735.608,994.727 735.733,1006.84 743.226,1014.33C746.918,1018.02 751.826,1020.06 757.048,1020.06C762.093,1020.06 766.846,1018.16 770.491,1014.7ZM770.507,1014.49L770.143,1013.61C773.139,1010.61 774.571,1006.46 774.185,1001.93C773.798,997.371 771.634,992.915 768.099,989.381C764.062,985.344 759.021,983.265 754.26,983.265C750.408,983.265 746.741,984.628 743.952,987.416C737.715,993.653 738.617,1004.26 745.932,1011.58C753.273,1018.92 763.906,1019.85 770.143,1013.61C769.996,1013.75 769.952,1013.98 770.031,1014.17C770.111,1014.36 770.299,1014.49 770.507,1014.49Z"/>
                    <path d="M816.208,1013.57L816.208,981.098L815.915,981.098L812.698,982.561L812.698,1012.18C809.188,1016.27 803.85,1018.98 799.316,1018.98C789.225,1018.98 789.225,1009.91 789.225,1006.69L789.225,981.098L788.933,981.098L785.716,982.561L785.716,1007.28C785.716,1016.56 789.81,1020.88 797.781,1020.88C803.192,1020.88 808.676,1018.03 812.698,1013.93L812.698,1014.3L814.599,1020.59L817.816,1019.12L816.208,1013.57Z" style="fill-rule:nonzero;"/>
                    <path d="M812.366,1014.98C808.322,1018.8 803.015,1021.39 797.781,1021.39C793.623,1021.39 790.485,1020.24 788.377,1017.9C786.288,1015.59 785.201,1012.08 785.201,1007.28L785.201,982.561C785.201,982.359 785.319,982.176 785.503,982.093L788.72,980.63C788.787,980.6 788.859,980.584 788.933,980.584L789.225,980.584C789.509,980.584 789.74,980.814 789.74,981.098L789.74,1006.69C789.74,1008.85 789.693,1013.78 793.015,1016.53C794.423,1017.7 796.441,1018.46 799.316,1018.46C803.667,1018.46 808.774,1015.88 812.183,1011.98L812.183,982.561C812.183,982.359 812.301,982.176 812.485,982.093L815.703,980.63C815.769,980.6 815.842,980.584 815.915,980.584L816.208,980.584C816.492,980.584 816.722,980.814 816.722,981.098L816.722,1013.49L818.31,1018.98C818.381,1019.23 818.261,1019.49 818.029,1019.59L814.812,1021.05C814.677,1021.12 814.522,1021.12 814.387,1021.05C814.252,1020.99 814.15,1020.88 814.107,1020.73L812.366,1014.98ZM815.693,981.764L813.212,982.892L813.212,1012.18C813.212,1012.3 813.168,1012.42 813.088,1012.51C809.479,1016.72 803.98,1019.49 799.316,1019.49C796.137,1019.49 793.916,1018.62 792.358,1017.33C788.758,1014.34 788.711,1009.03 788.711,1006.69L788.711,981.764L786.23,982.892L786.23,1007.28C786.23,1011.76 787.191,1015.05 789.141,1017.22C791.074,1019.36 793.969,1020.36 797.781,1020.36C803.061,1020.36 808.406,1017.57 812.331,1013.57C812.477,1013.42 812.699,1013.38 812.892,1013.45C813.086,1013.53 813.212,1013.72 813.212,1013.93L813.212,1014.22L814.921,1019.87L817.198,1018.84L815.714,1013.71C815.7,1013.66 815.693,1013.61 815.693,1013.57L815.693,981.764Z"/>
                    <path d="M830.726,960.771L827.508,962.233L827.508,1020L831.018,1020L831.018,960.771L830.726,960.771Z" style="fill-rule:nonzero;"/>
                    <path d="M830.726,960.257L831.018,960.257C831.302,960.257 831.533,960.487 831.533,960.771L831.533,1020C831.533,1020.28 831.302,1020.51 831.018,1020.51L827.508,1020.51C827.224,1020.51 826.994,1020.28 826.994,1020L826.994,962.233C826.994,962.031 827.112,961.848 827.295,961.765L830.513,960.303C830.58,960.273 830.652,960.257 830.726,960.257ZM830.504,961.437L828.022,962.564L828.022,1019.49L830.504,1019.49L830.504,961.437Z"/>
                </g>
                <g transform="matrix(0.248665,0,0,0.248665,1139.07,661.5)">
                    <circle cx="1104.65" cy="1236.94" r="24.649"/>
                </g>
                <g transform="matrix(1,0,0,1,491.153,-29.7958)">
                    <path d="M722.446,980.806C717.473,980.806 712.721,983.073 708.991,986.949L708.991,960.771L708.699,960.771L705.481,962.233L705.481,1020L705.773,1020L708.114,1015.17C711.403,1018.83 715.937,1020.88 720.763,1020.88C730.488,1020.88 738.897,1012.76 738.897,1000.33C738.898,988.923 731.952,980.806 722.446,980.806ZM720.691,1019.71C715.718,1019.71 711.331,1016.93 708.992,1012.4L708.992,988.777C712.428,984.829 717.255,982.561 721.495,982.561C729.027,982.561 734.95,989.8 734.95,1000.92C734.949,1012.4 728.661,1019.71 720.691,1019.71Z" style="fill-rule:nonzero;"/>
                    <path d="M722.446,980.291C732.222,980.291 739.413,988.599 739.412,1000.33C739.412,1013.09 730.746,1021.39 720.763,1021.39C716.041,1021.39 711.589,1019.49 708.25,1016.07L706.236,1020.22C706.15,1020.4 705.971,1020.51 705.773,1020.51L705.481,1020.51C705.197,1020.51 704.967,1020.28 704.967,1020L704.967,962.233C704.967,962.031 705.084,961.848 705.268,961.765L708.486,960.303C708.553,960.273 708.625,960.257 708.699,960.257L708.991,960.257C709.275,960.257 709.506,960.487 709.506,960.771L709.506,985.719C713.191,982.274 717.723,980.291 722.446,980.291ZM705.995,1018.36L707.651,1014.95C707.725,1014.79 707.872,1014.69 708.041,1014.66C708.211,1014.64 708.381,1014.7 708.496,1014.83C711.687,1018.37 716.083,1020.36 720.763,1020.36C730.231,1020.36 738.383,1012.43 738.383,1000.33C738.384,989.247 731.682,981.32 722.446,981.32C717.609,981.32 712.99,983.535 709.362,987.305C709.216,987.457 708.993,987.504 708.799,987.426C708.604,987.347 708.477,987.159 708.477,986.949L708.477,961.437L705.995,962.564L705.995,1018.36ZM720.691,1020.22C715.525,1020.22 710.965,1017.34 708.535,1012.63C708.497,1012.56 708.478,1012.48 708.478,1012.4L708.478,988.777C708.478,988.653 708.522,988.533 708.604,988.439C712.145,984.371 717.125,982.047 721.495,982.047C729.265,982.047 735.465,989.449 735.465,1000.92C735.464,1012.75 728.905,1020.22 720.691,1020.22ZM720.691,1019.19C728.418,1019.19 734.435,1012.05 734.436,1000.92C734.436,990.151 728.789,983.075 721.495,983.075C717.436,983.075 712.829,985.232 709.506,988.971L709.507,1012.27C711.769,1016.56 715.951,1019.19 720.691,1019.19Z"/>
                    <path d="M780.373,986.322C772.552,978.502 759.824,978.503 751.997,986.327C744.176,994.149 744.176,1006.88 751.997,1014.7C755.786,1018.49 760.824,1020.57 766.182,1020.57C771.542,1020.57 776.58,1018.49 780.369,1014.7C784.159,1010.91 786.246,1005.87 786.247,1000.51C786.247,995.15 784.161,990.111 780.373,986.322L780.373,986.322ZM779.642,1013.97C773.219,1020.4 762.263,1019.5 754.703,1011.94C747.169,1004.41 746.299,993.476 752.723,987.053C755.61,984.165 759.406,982.75 763.395,982.75C768.28,982.75 773.456,984.875 777.598,989.017C781.222,992.64 783.436,997.211 783.832,1001.89C784.232,1006.58 782.743,1010.87 779.642,1013.97L779.642,1013.97Z" style="fill-rule:nonzero;"/>
                    <path d="M780.737,985.959C784.622,989.844 786.761,995.012 786.761,1000.51C786.761,1006 784.62,1011.17 780.732,1015.06C776.847,1018.95 771.679,1021.09 766.182,1021.09C760.686,1021.09 755.519,1018.95 751.633,1015.06C743.612,1007.04 743.612,993.986 751.633,985.963C759.661,977.938 772.715,977.938 780.737,985.959ZM780.009,986.686C772.518,979.196 760.408,979.069 752.754,986.308C755.687,983.578 759.449,982.236 763.395,982.236C768.404,982.236 773.714,984.406 777.961,988.654C781.676,992.366 783.938,997.052 784.345,1001.84C784.743,1006.52 783.323,1010.8 780.351,1013.98C783.825,1010.33 785.732,1005.57 785.733,1000.51C785.733,995.287 783.7,990.377 780.009,986.686ZM779.626,1014.7C772.971,1020.91 761.972,1019.94 754.339,1012.31C746.737,1004.71 745.784,993.734 751.983,987.078C744.742,994.727 744.868,1006.84 752.361,1014.33C756.052,1018.02 760.961,1020.06 766.182,1020.06C771.228,1020.06 775.981,1018.16 779.626,1014.7ZM779.642,1014.49L779.278,1013.61C782.274,1010.61 783.706,1006.46 783.319,1001.93C782.933,997.371 780.769,992.915 777.234,989.381C773.197,985.344 768.156,983.265 763.395,983.265C759.543,983.265 755.875,984.628 753.087,987.416C746.85,993.653 747.752,1004.26 755.067,1011.58C762.408,1018.92 773.041,1019.85 779.278,1013.61C779.131,1013.75 779.087,1013.98 779.166,1014.17C779.246,1014.36 779.434,1014.49 779.642,1014.49Z"/>
                    <path d="M826.897,1013.57L826.897,960.771L826.604,960.771L823.387,962.233L823.387,985.559C820.17,982.489 816.075,980.806 811.615,980.806C801.889,980.806 793.481,988.923 793.481,1001.35C793.481,1012.76 800.427,1020.88 809.933,1020.88C814.979,1020.88 819.731,1018.54 823.461,1014.59L825.289,1020.58L828.506,1019.12L826.897,1013.57ZM823.387,1012.91C819.951,1016.86 815.124,1019.12 810.883,1019.12C803.352,1019.12 797.429,1011.88 797.429,1000.77C797.429,989.29 803.718,981.977 811.688,981.977C816.661,981.977 821.047,984.756 823.387,989.29L823.387,1012.91Z" style="fill-rule:nonzero;"/>
                    <path d="M827.411,1013.49L829,1018.98C829.071,1019.22 828.951,1019.48 828.719,1019.59L825.502,1021.05C825.367,1021.11 825.212,1021.11 825.077,1021.05C824.942,1020.99 824.84,1020.88 824.797,1020.73L823.221,1015.57C819.488,1019.24 814.844,1021.39 809.933,1021.39C800.157,1021.39 792.966,1013.08 792.966,1001.35C792.966,988.594 801.632,980.291 811.615,980.291C815.816,980.291 819.704,981.74 822.872,984.407L822.872,962.233C822.872,962.031 822.99,961.848 823.174,961.765L826.392,960.303C826.458,960.273 826.531,960.257 826.604,960.257L826.897,960.257C827.181,960.257 827.411,960.487 827.411,960.771L827.411,1013.49ZM826.382,961.437L823.901,962.564L823.901,985.559C823.901,985.765 823.778,985.951 823.589,986.032C823.4,986.113 823.18,986.074 823.031,985.931C819.912,982.953 815.94,981.32 811.615,981.32C802.147,981.32 793.995,989.253 793.995,1001.35C793.995,1012.44 800.697,1020.36 809.933,1020.36C814.841,1020.36 819.459,1018.08 823.087,1014.24C823.213,1014.1 823.4,1014.05 823.578,1014.09C823.757,1014.13 823.899,1014.26 823.953,1014.44L825.61,1019.87L827.888,1018.84L826.403,1013.71C826.389,1013.66 826.382,1013.61 826.382,1013.57L826.382,961.437ZM823.775,1013.25C820.234,1017.31 815.253,1019.64 810.883,1019.64C803.114,1019.64 796.914,1012.24 796.914,1000.77C796.914,988.939 803.474,981.462 811.688,981.462C816.854,981.462 821.414,984.344 823.844,989.054C823.881,989.127 823.901,989.208 823.901,989.29L823.901,1012.91C823.901,1013.03 823.856,1013.15 823.775,1013.25ZM822.872,1012.71L822.872,989.415C820.61,985.122 816.427,982.491 811.688,982.491C803.961,982.491 797.943,989.64 797.943,1000.77C797.943,1011.53 803.59,1018.61 810.883,1018.61C814.943,1018.61 819.55,1016.45 822.872,1012.71Z"/>
                    <path d="M865.078,981.56L852.626,1015.52L852.694,1014.98L838.143,981.56L834.34,981.56L850.866,1019.51L848.234,1026.09C845.821,1032.16 837.306,1033.04 833.87,1033.04C833.065,1033.04 832.042,1032.97 831.092,1032.75L830.629,1036.99C836.918,1036.99 846.259,1034.43 849.623,1026.09L851.985,1020.59L852.041,1020.51L852.111,1020.32L852.323,1019.75L852.675,1018.8L866.514,981.595L865.078,981.56Z" style="fill-rule:nonzero;"/>
                    <path d="M852.454,1020.8L852.458,1020.8C852.457,1020.8 852.455,1020.8 852.454,1020.8ZM852.723,1013.76L864.595,981.383C864.671,981.176 864.87,981.041 865.091,981.046L866.527,981.081C866.693,981.085 866.847,981.169 866.94,981.307C867.033,981.445 867.054,981.619 866.996,981.775L853.158,1018.98L852.805,1019.93L852.594,1020.5C852.593,1020.5 852.591,1020.51 852.59,1020.51L852.523,1020.69L852.041,1021.02L852.467,1020.8L852.439,1020.84L850.098,1026.29C846.644,1034.84 837.082,1037.5 830.629,1037.5C830.483,1037.5 830.344,1037.44 830.246,1037.33C830.149,1037.22 830.102,1037.08 830.118,1036.93L830.58,1032.69C830.596,1032.55 830.674,1032.41 830.794,1032.33C830.914,1032.25 831.064,1032.21 831.207,1032.25C832.118,1032.46 833.099,1032.53 833.87,1032.53C835.882,1032.53 839.68,1032.22 842.905,1030.69C844.992,1029.71 846.841,1028.2 847.756,1025.9L847.756,1025.9L850.308,1019.52L833.869,981.766C833.799,981.607 833.815,981.423 833.91,981.278C834.005,981.133 834.167,981.046 834.34,981.046L838.143,981.046C838.348,981.046 838.533,981.167 838.615,981.355L852.723,1013.76ZM852.414,1020.88L851.985,1021.11L851.778,1020.72C851.745,1020.69 851.715,1020.65 851.689,1020.62C851.639,1020.55 851.609,1020.46 851.6,1020.38L851.594,1020.37L851.562,1020.32L851.565,1020.31L851.559,1020.3L851.581,1020.27L851.629,1020.15L851.84,1019.57L852.193,1018.62L865.781,982.092L865.434,982.084L853.109,1015.69C853.019,1015.94 852.759,1016.08 852.504,1016.02C852.25,1015.95 852.083,1015.71 852.116,1015.45L852.166,1015.05L837.806,982.075L835.125,982.075L851.337,1019.31C851.392,1019.43 851.394,1019.57 851.343,1019.7L848.712,1026.28C847.696,1028.84 845.662,1030.53 843.345,1031.62C839.963,1033.23 835.981,1033.56 833.87,1033.56C833.19,1033.56 832.36,1033.51 831.542,1033.36L831.204,1036.46C837.31,1036.32 845.971,1033.77 849.146,1025.9L849.151,1025.89L851.513,1020.39C851.444,1020.55 851.461,1020.73 851.556,1020.88C851.651,1021.02 851.812,1021.11 851.985,1021.11C852.16,1021.11 852.32,1021.02 852.414,1020.88Z"/>
                </g>
                <g transform="matrix(0.248665,0,0,0.248665,865.859,661.5)">
                    <circle cx="1104.65" cy="1236.94" r="24.649"/>
                </g>
                <g transform="matrix(1,0,0,1,198.061,-29.7958)">
                    <path d="M724.127,980.806C718.351,980.806 713.745,983.073 708.991,987.461L708.991,960.771L708.699,960.771L705.481,962.233L705.481,1020L708.991,1020L708.991,988.85C713.451,984.609 717.897,982.24 722.649,982.24C732.74,982.24 732.683,991.774 732.683,994.992L732.683,1020L736.192,1020L736.192,994.407C736.192,985.12 732.098,980.806 724.127,980.806L724.127,980.806Z" style="fill-rule:nonzero;"/>
                    <path d="M724.127,980.291C728.286,980.291 731.423,981.443 733.531,983.779C735.62,986.096 736.707,989.604 736.707,994.407L736.707,1020C736.707,1020.28 736.477,1020.51 736.192,1020.51L732.683,1020.51C732.399,1020.51 732.169,1020.28 732.169,1020L732.169,994.992C732.169,992.825 732.242,987.666 728.929,984.774C727.529,983.553 725.52,982.755 722.649,982.755C718.073,982.755 713.8,985.032 709.506,989.072L709.506,1020C709.506,1020.28 709.275,1020.51 708.991,1020.51L705.481,1020.51C705.197,1020.51 704.967,1020.28 704.967,1020L704.967,962.233C704.967,962.031 705.084,961.848 705.268,961.765L708.486,960.303C708.553,960.273 708.625,960.257 708.699,960.257L708.991,960.257C709.275,960.257 709.506,960.487 709.506,960.771L709.506,986.307C714.067,982.33 718.57,980.291 724.127,980.291ZM724.127,981.32C718.823,981.32 714.534,983.289 710.181,987.084C714.241,983.619 718.326,981.726 722.649,981.726C725.834,981.726 728.052,982.644 729.605,983.999C733.18,987.119 733.198,992.654 733.198,994.992L733.198,1019.49L735.678,1019.49L735.678,994.407C735.678,989.923 734.718,986.631 732.767,984.469C730.835,982.326 727.94,981.32 724.127,981.32ZM709.252,987.904C709.112,987.987 708.938,987.999 708.785,987.932C708.598,987.85 708.477,987.665 708.477,987.461L708.477,961.437L705.995,962.564L705.995,1019.49L708.477,1019.49L708.477,988.85C708.477,988.709 708.535,988.574 708.637,988.477C708.842,988.282 709.047,988.091 709.252,987.904Z"/>
                    <path d="M779.155,986.322C771.334,978.502 758.606,978.503 750.779,986.327C742.958,994.149 742.958,1006.88 750.779,1014.7C754.568,1018.49 759.606,1020.57 764.964,1020.57C770.324,1020.57 775.362,1018.49 779.151,1014.7C782.941,1010.91 785.028,1005.87 785.029,1000.51C785.029,995.15 782.943,990.111 779.155,986.322L779.155,986.322ZM778.424,1013.97C772.001,1020.4 761.045,1019.5 753.485,1011.94C745.951,1004.41 745.081,993.476 751.505,987.053C754.392,984.165 758.188,982.75 762.177,982.75C767.062,982.75 772.238,984.875 776.38,989.017C780.004,992.64 782.218,997.211 782.614,1001.89C783.014,1006.58 781.525,1010.87 778.424,1013.97L778.424,1013.97Z" style="fill-rule:nonzero;"/>
                    <path d="M779.519,985.959C783.404,989.844 785.543,995.012 785.543,1000.51C785.543,1006 783.402,1011.17 779.514,1015.06C775.629,1018.95 770.461,1021.09 764.964,1021.09C759.468,1021.09 754.301,1018.95 750.415,1015.06C742.394,1007.04 742.394,993.986 750.415,985.963C758.443,977.938 771.497,977.938 779.519,985.959ZM778.791,986.686C771.3,979.196 759.19,979.069 751.536,986.308C754.469,983.578 758.231,982.236 762.177,982.236C767.186,982.236 772.496,984.406 776.743,988.654C780.458,992.366 782.72,997.052 783.127,1001.84C783.525,1006.52 782.105,1010.8 779.133,1013.98C782.607,1010.33 784.514,1005.57 784.515,1000.51C784.515,995.287 782.482,990.377 778.791,986.686ZM778.408,1014.7C771.753,1020.91 760.754,1019.94 753.121,1012.31C745.519,1004.71 744.566,993.734 750.765,987.078C743.524,994.727 743.65,1006.84 751.143,1014.33C754.834,1018.02 759.743,1020.06 764.964,1020.06C770.01,1020.06 774.763,1018.16 778.408,1014.7ZM778.424,1014.49L778.06,1013.61C781.056,1010.61 782.488,1006.46 782.101,1001.93C781.715,997.371 779.551,992.915 776.016,989.381C771.979,985.344 766.938,983.265 762.177,983.265C758.325,983.265 754.657,984.628 751.869,987.416C745.632,993.653 746.534,1004.26 753.849,1011.58C761.19,1018.92 771.823,1019.85 778.06,1013.61C777.913,1013.75 777.869,1013.98 777.948,1014.17C778.028,1014.36 778.216,1014.49 778.424,1014.49Z"/>
                    <path d="M838.399,980.806C832.329,980.806 828.089,983.365 823.189,988.119C821.58,983.146 817.851,980.806 811.928,980.806C806.151,980.806 802.13,983.073 797.523,987.461L797.523,981.098L797.23,981.098L794.013,982.561L794.013,1020L797.523,1020L797.523,988.85C801.91,984.609 805.697,982.24 810.451,982.24C820.541,982.24 820.483,991.774 820.483,994.992L820.483,1020L823.994,1020L823.994,994.407C823.994,992.506 823.847,990.898 823.482,989.435C828.089,984.828 832.022,982.24 836.921,982.24C847.012,982.24 846.954,991.774 846.954,994.992L846.954,1020L850.464,1020L850.464,994.407C850.464,985.12 846.369,980.806 838.399,980.806L838.399,980.806Z" style="fill-rule:nonzero;"/>
                    <path d="M838.399,980.291C842.557,980.291 845.695,981.443 847.802,983.779C849.891,986.096 850.978,989.604 850.978,994.407L850.978,1020C850.978,1020.28 850.748,1020.51 850.464,1020.51L846.954,1020.51C846.67,1020.51 846.44,1020.28 846.44,1020L846.44,994.992C846.44,992.825 846.513,987.666 843.2,984.774C841.8,983.553 839.791,982.755 836.921,982.755C832.22,982.755 828.45,985.233 824.049,989.596C824.374,991.019 824.508,992.582 824.508,994.407L824.508,1020C824.508,1020.28 824.278,1020.51 823.994,1020.51L820.483,1020.51C820.199,1020.51 819.969,1020.28 819.969,1020L819.969,994.992C819.969,992.825 820.042,987.666 816.729,984.774C815.33,983.553 813.321,982.755 810.451,982.755C805.88,982.755 802.241,985.035 798.037,989.069L798.037,1020C798.037,1020.28 797.807,1020.51 797.523,1020.51L794.013,1020.51C793.729,1020.51 793.499,1020.28 793.499,1020L793.499,982.561C793.499,982.359 793.617,982.176 793.8,982.093L797.017,980.63C797.084,980.6 797.157,980.584 797.23,980.584L797.523,980.584C797.807,980.584 798.037,980.814 798.037,981.098L798.037,986.279C802.403,982.319 806.378,980.291 811.928,980.291C817.806,980.291 821.601,982.521 823.408,987.197C828.181,982.691 832.43,980.291 838.399,980.291ZM838.399,981.148C838.394,980.843 838.36,980.25 838.169,980.346L838.399,981.32C832.468,981.32 828.335,983.843 823.547,988.488C823.42,988.612 823.237,988.661 823.065,988.618C822.892,988.575 822.754,988.446 822.7,988.277C821.163,983.528 817.584,981.32 811.928,981.32C806.913,981.32 803.261,983.085 799.351,986.488C802.982,983.401 806.376,981.726 810.451,981.726C813.635,981.726 815.853,982.644 817.406,983.999C820.98,987.119 820.998,992.654 820.998,994.992L820.998,1019.49L823.479,1019.49L823.479,994.407C823.479,992.554 823.339,990.986 822.983,989.56C822.939,989.385 822.99,989.199 823.118,989.071C827.843,984.346 831.896,981.726 836.921,981.726C840.105,981.726 842.323,982.644 843.876,983.999C847.451,987.119 847.469,992.654 847.469,994.992L847.469,1019.49L849.949,1019.49L849.949,994.407C849.949,989.923 848.989,986.631 847.038,984.469C845.106,982.326 842.211,981.32 838.399,981.32C838.399,981.292 838.4,981.228 838.399,981.148ZM797.752,987.921C797.619,987.987 797.461,987.994 797.32,987.933C797.131,987.852 797.008,987.666 797.008,987.461L797.008,981.764L794.528,982.892L794.528,1019.49L797.008,1019.49L797.008,988.85C797.008,988.711 797.065,988.577 797.165,988.48C797.362,988.29 797.557,988.104 797.752,987.921Z"/>
                    <path d="M892.056,1013.97C885.754,1020.27 875.003,1019.39 867.587,1011.98C863.308,1007.7 861.225,1002.3 861.45,997.284L891.952,997.284C891.943,996.877 891.934,996.48 891.917,996.091C891.45,986.998 886.532,981.509 878.978,980.817C878.96,980.817 878.944,980.809 878.917,980.809C878.744,980.8 878.572,980.783 878.398,980.774C878.303,980.765 878.208,980.765 878.113,980.757C878.018,980.757 877.923,980.749 877.819,980.749L877.819,980.757C873.428,980.68 869.011,982.772 864.932,986.851C857.257,994.527 857.257,1007.01 864.932,1014.68C868.648,1018.4 873.593,1020.45 878.848,1020.45C884.103,1020.45 889.047,1018.4 892.763,1014.68C893.412,1014.03 894.016,1013.34 894.561,1012.62L893.23,1012.62C892.877,1013.09 892.479,1013.54 892.056,1013.97L892.056,1013.97ZM865.65,987.559C868.476,984.724 872.202,983.342 876.117,983.342C876.117,983.342 886.516,982.503 887.916,993.895C887.933,993.981 887.941,994.077 887.95,994.172C888.002,994.604 888.036,995.062 888.045,995.529C888.054,995.563 888.054,995.589 888.054,995.624C888.063,995.78 888.071,995.935 888.071,996.091L861.553,996.091C861.933,992.901 863.291,989.92 865.65,987.559L865.65,987.559Z" style="fill-rule:nonzero;"/>
                    <path d="M877.819,980.243L877.819,980.234C877.922,980.234 878.015,980.243 878.108,980.242C878.125,980.242 878.143,980.243 878.16,980.244C878.251,980.253 878.343,980.253 878.43,980.261C878.602,980.27 878.773,980.286 878.943,980.295L878.917,980.294L879.071,980.313C879.055,980.309 879.04,980.307 879.025,980.305C886.833,981.02 891.948,986.666 892.431,996.064L892.431,996.069C892.448,996.462 892.457,996.863 892.466,997.273C892.469,997.411 892.416,997.545 892.319,997.643C892.223,997.742 892.09,997.798 891.952,997.798L861.949,997.798C861.884,1002.54 863.923,1007.59 867.95,1011.61C875.147,1018.81 885.577,1019.72 891.692,1013.6C891.545,1013.75 891.501,1013.97 891.58,1014.16C891.66,1014.35 891.848,1014.48 892.056,1014.48L891.692,1013.6C892.097,1013.2 892.479,1012.77 892.817,1012.31C892.914,1012.18 893.067,1012.1 893.23,1012.1L894.561,1012.1C894.756,1012.1 894.934,1012.21 895.022,1012.39C895.109,1012.56 895.09,1012.77 894.973,1012.93C894.413,1013.67 893.793,1014.38 893.127,1015.05C889.313,1018.86 884.241,1020.96 878.848,1020.96C873.456,1020.96 868.382,1018.86 864.568,1015.05C856.693,1007.17 856.693,994.364 864.568,986.487C868.76,982.296 873.307,980.166 877.819,980.243ZM893.375,1013.27C893.415,1013.22 893.454,1013.18 893.494,1013.13L893.485,1013.13C893.449,1013.18 893.412,1013.22 893.375,1013.27ZM891.228,1015.4C884.641,1020.7 874.409,1019.53 867.223,1012.34C862.833,1007.95 860.706,1002.4 860.936,997.261C860.948,996.986 861.175,996.769 861.45,996.769L891.425,996.769C891.42,996.549 891.413,996.33 891.403,996.115C890.952,987.329 886.231,981.998 878.931,981.33L878.978,981.332L878.837,981.315C878.853,981.318 878.871,981.321 878.891,981.322C878.718,981.313 878.546,981.297 878.372,981.288L878.351,981.286C878.264,981.278 878.177,981.278 878.097,981.271C878.011,981.271 877.923,981.263 877.828,981.263L877.819,981.272L877.81,981.272C873.844,981.202 869.865,982.971 866.14,986.404C868.937,984.007 872.436,982.831 876.093,982.828C876.427,982.805 881.536,982.526 885.12,986.234C886.695,987.865 887.985,990.266 888.423,993.81C888.442,993.907 888.452,994.012 888.461,994.113C888.515,994.561 888.55,995.035 888.559,995.519L888.543,995.401L888.568,995.624L888.567,995.595C888.577,995.76 888.586,995.925 888.586,996.091C888.586,996.375 888.356,996.605 888.071,996.605L861.553,996.605C861.406,996.605 861.266,996.542 861.168,996.432C861.071,996.322 861.025,996.176 861.042,996.03C861.374,993.239 862.43,990.603 864.224,988.378C857.84,995.902 858.198,1007.22 865.296,1014.32C868.915,1017.94 873.73,1019.93 878.848,1019.93C883.432,1019.93 887.772,1018.33 891.228,1015.4ZM877.812,981.262C877.747,981.182 877.305,980.635 877.305,980.749C877.305,981.182 877.747,981.254 877.812,981.262ZM866.014,987.923C866.014,987.923 866.013,987.923 866.013,987.924C863.881,990.057 862.598,992.718 862.144,995.576L887.533,995.576C887.532,995.564 887.531,995.551 887.531,995.538C887.522,995.089 887.489,994.649 887.439,994.233L887.438,994.219C887.431,994.143 887.426,994.067 887.412,993.998C887.409,993.985 887.407,993.971 887.405,993.958C887.002,990.68 885.834,988.454 884.38,986.949C881.011,983.463 876.158,983.854 876.158,983.854C876.145,983.855 876.131,983.856 876.117,983.856C872.339,983.856 868.742,985.187 866.014,987.923Z"/>
                </g>
            </g>
            <g id="sanctuary-space" serif:id="sanctuary space" transform="matrix(1,0,0,1,91.5728,-124.342)">
                <path d="M734.588,982.375L729.363,980.025C722.44,976.89 712.903,973.233 712.903,964.61C712.903,957.817 718.419,950.804 728.479,950.804C736.971,950.804 743.796,958.871 748.367,962.66L751.178,955.728C745.693,952.461 737.331,949.979 729.102,949.979C716.821,949.979 707.416,956.12 707.416,966.57C707.416,977.544 717.606,982.117 726.881,986.296L732.107,988.648C740.338,992.305 748.436,995.963 748.436,1004.85C748.436,1013.6 740.662,1020.55 729.82,1020.55C720.152,1020.55 714.762,1012.38 709.144,1006.76L705.848,1014.51C713.424,1019.61 721.916,1021.57 729.362,1021.57C743.731,1021.57 753.791,1014.38 753.791,1002.75C753.791,990.998 743.339,986.296 734.588,982.375L734.588,982.375Z" style="fill-rule:nonzero;"/>
                <path d="M734.917,981.639L734.919,981.64C739.361,983.63 744.229,985.828 747.992,989.011C751.872,992.292 754.598,996.603 754.598,1002.75C754.598,1014.81 744.259,1022.37 729.362,1022.37C721.773,1022.37 713.119,1020.37 705.398,1015.18C705.077,1014.97 704.954,1014.55 705.105,1014.2L708.402,1006.44C708.506,1006.2 708.727,1006.02 708.99,1005.97C709.254,1005.92 709.525,1006 709.715,1006.19C712.508,1008.98 715.243,1012.41 718.483,1015.14C721.6,1017.77 725.195,1019.75 729.82,1019.75C740.156,1019.75 747.63,1013.19 747.63,1004.85C747.63,1000.68 745.715,997.743 742.849,995.413C739.846,992.972 735.826,991.183 731.779,989.385L731.776,989.384L726.55,987.032C721.847,984.913 716.918,982.685 713.159,979.605C709.268,976.417 706.609,972.33 706.609,966.57C706.609,955.687 716.312,949.172 729.102,949.172C737.486,949.172 746.002,951.707 751.591,955.034C751.933,955.238 752.076,955.662 751.926,956.031L749.115,962.963C749.018,963.202 748.814,963.38 748.564,963.442C748.315,963.505 748.05,963.445 747.852,963.281C745.575,961.394 742.738,958.439 739.411,955.958C736.21,953.57 732.549,951.611 728.479,951.611C718.969,951.611 713.71,958.188 713.71,964.61C713.71,968.643 715.974,971.495 719.014,973.725C722.219,976.076 726.281,977.744 729.695,979.29L734.917,981.639ZM734.258,983.112C734.257,983.111 734.257,983.111 734.257,983.111L729.032,980.761L729.03,980.76C725.522,979.171 721.354,977.443 718.06,975.026C714.6,972.488 712.096,969.2 712.096,964.61C712.096,959.932 714.556,955.134 719.216,952.367C712.604,954.719 708.223,959.622 708.223,966.57C708.223,971.785 710.659,975.471 714.182,978.357C717.837,981.352 722.64,983.5 727.212,985.561L732.436,987.912C736.619,989.77 740.763,991.638 743.867,994.161C747.108,996.796 749.243,1000.13 749.243,1004.85C749.243,1011.17 745.395,1016.63 739.279,1019.41C747.648,1016.9 752.985,1011.03 752.985,1002.75C752.985,997.15 750.485,993.232 746.95,990.243C743.3,987.155 738.567,985.042 734.258,983.112ZM724.349,1020.46C721.765,1019.58 719.505,1018.12 717.443,1016.38C714.492,1013.89 711.952,1010.83 709.413,1008.19L706.853,1014.21C712.477,1017.86 718.582,1019.77 724.349,1020.46ZM734.095,951.082C736.339,951.936 738.438,953.219 740.376,954.664C743.329,956.867 745.901,959.438 748.041,961.318L750.167,956.074C745.939,953.692 740.154,951.789 734.095,951.082ZM734.588,983.182C734.588,983.182 734.048,981.73 733.916,981.928L734.588,983.182Z"/>
                <path d="M821.716,1017.68C815.184,1017.68 815.184,1014.02 815.184,1007.75L815.184,974.307C815.184,957.584 807.869,950.008 793.761,950.008C784.354,950.008 777.3,953.666 770.115,960.199L771.291,961.636C777.821,956.019 783.831,953.405 791.148,953.405C803.166,953.405 808.914,960.589 808.914,975.351L808.914,983.188C804.603,983.449 799.9,983.841 795.328,984.364C777.56,986.456 765.281,993.38 765.281,1005.92C765.281,1015.72 772.858,1021.34 783.309,1021.34C791.67,1021.34 801.598,1017.81 808.914,1011.01C809.176,1014.54 810.221,1020.55 816.621,1020.55C819.103,1020.55 821.586,1019.64 824.066,1018.2L824.066,1017.42C823.284,1017.55 822.5,1017.68 821.716,1017.68ZM808.914,1008.53C802.512,1014.81 794.283,1017.94 787.098,1017.94C778.605,1017.94 770.072,1012.82 769.37,1002.59C768.413,988.644 790.57,985.759 808.914,986.412L808.914,1008.53Z" style="fill-rule:nonzero;"/>
                <path d="M821.716,1016.87C822.456,1016.87 823.195,1016.74 823.933,1016.62C824.167,1016.58 824.407,1016.65 824.588,1016.8C824.769,1016.95 824.873,1017.18 824.873,1017.42L824.873,1018.2C824.873,1018.49 824.72,1018.75 824.471,1018.9C821.857,1020.41 819.236,1021.36 816.621,1021.36C810.547,1021.36 808.811,1016.46 808.277,1012.66C800.941,1018.91 791.405,1022.14 783.309,1022.14C772.357,1022.14 764.474,1016.19 764.474,1005.92C764.474,999.369 767.663,994.275 773.191,990.555C778.57,986.935 786.202,984.626 795.234,983.563L795.237,983.562C799.556,983.069 803.992,982.691 808.107,982.43L808.107,975.351C808.107,966.805 806.184,960.866 802.082,957.502C799.376,955.284 795.737,954.212 791.148,954.212C784.022,954.212 778.177,956.778 771.817,962.248C771.652,962.389 771.437,962.458 771.22,962.44C771.004,962.421 770.804,962.315 770.666,962.147L769.49,960.71C769.219,960.377 769.254,959.89 769.572,959.602C776.92,952.922 784.141,949.201 793.761,949.201C801.086,949.201 806.632,951.209 810.362,955.346C814.062,959.45 815.991,965.694 815.991,974.307L815.991,1007.75C815.991,1009.59 815.988,1011.2 816.161,1012.56C816.314,1013.76 816.595,1014.75 817.209,1015.47C818.032,1016.43 819.429,1016.87 821.716,1016.87ZM821.777,1018.48C821.757,1018.48 821.736,1018.49 821.716,1018.49C818.778,1018.49 817.039,1017.75 815.981,1016.51C815.333,1015.75 814.93,1014.79 814.697,1013.62C814.384,1012.04 814.377,1010.07 814.377,1007.75L814.377,974.307C814.377,966.197 812.648,960.291 809.164,956.427C805.709,952.595 800.544,950.815 793.761,950.815C784.815,950.815 778.055,954.219 771.227,960.284L771.395,960.49C777.855,955.096 783.877,952.598 791.148,952.598C796.173,952.598 800.142,953.825 803.105,956.255C807.506,959.863 809.721,966.183 809.721,975.351L809.721,983.188C809.721,983.615 809.389,983.968 808.963,983.993C804.666,984.254 799.978,984.644 795.421,985.165C789.658,985.844 784.48,987.032 780.13,988.767C788.088,985.937 799.061,985.254 808.943,985.606C809.377,985.621 809.721,985.977 809.721,986.412L809.721,1008.53C809.721,1008.75 809.634,1008.96 809.479,1009.11C802.913,1015.54 794.468,1018.75 787.098,1018.75C778.207,1018.75 769.3,1013.36 768.565,1002.64C768.3,998.781 769.681,995.7 772.232,993.281C768.322,996.521 766.088,1000.71 766.088,1005.92C766.088,1015.25 773.359,1020.53 783.309,1020.53C791.492,1020.53 801.205,1017.07 808.365,1010.42C808.593,1010.21 808.921,1010.15 809.209,1010.26C809.498,1010.38 809.696,1010.65 809.719,1010.96C809.957,1014.17 810.787,1019.75 816.621,1019.75C818.341,1019.75 820.059,1019.27 821.777,1018.48ZM808.107,1008.19L808.107,987.193C797.433,986.873 785.593,987.765 777.94,991.411C772.981,993.774 769.816,997.305 770.175,1002.53C770.844,1012.29 779.004,1017.13 787.098,1017.13C794.008,1017.13 801.906,1014.15 808.107,1008.19Z"/>
                <path d="M871.08,949.978C860.759,949.978 852.53,954.028 844.038,961.867L844.038,950.5L843.515,950.5L837.768,953.113L837.768,1020L844.038,1020L844.038,964.349C852.006,956.773 859.948,952.54 868.439,952.54C886.467,952.54 886.365,969.573 886.365,975.322L886.365,1020L892.636,1020L892.636,974.277C892.637,957.686 885.319,949.978 871.08,949.978L871.08,949.978Z" style="fill-rule:nonzero;"/>
                <path d="M871.08,949.171C878.471,949.171 884.051,951.212 887.797,955.365C891.515,959.487 893.443,965.731 893.442,974.277L893.442,1020C893.442,1020.45 893.081,1020.81 892.636,1020.81L886.365,1020.81C885.919,1020.81 885.558,1020.45 885.558,1020L885.558,975.322C885.558,971.432 885.679,962.173 879.731,956.982C877.214,954.786 873.601,953.347 868.439,953.347C860.225,953.347 852.552,957.435 844.844,964.696L844.844,1020C844.844,1020.45 844.483,1020.81 844.038,1020.81L837.768,1020.81C837.322,1020.81 836.961,1020.45 836.961,1020L836.961,953.113C836.961,952.797 837.146,952.51 837.434,952.379L843.181,949.766C843.286,949.718 843.4,949.693 843.515,949.693L844.038,949.693C844.483,949.693 844.844,950.055 844.844,950.5L844.844,960.054C853.034,952.861 861.103,949.171 871.08,949.171ZM871.08,950.784C860.964,950.784 852.908,954.776 844.585,962.459C844.349,962.677 844.008,962.734 843.714,962.606C843.42,962.477 843.231,962.187 843.231,961.867L843.231,951.516L838.575,953.633L838.575,1019.19L843.231,1019.19L843.231,964.349C843.231,964.128 843.321,963.917 843.482,963.764C851.625,956.021 859.761,951.733 868.439,951.733C874.094,951.733 878.034,953.36 880.792,955.767C887.15,961.316 887.171,971.164 887.171,975.322L887.171,1019.19L891.829,1019.19L891.829,974.277C891.83,966.231 890.1,960.326 886.599,956.446C883.127,952.597 877.929,950.784 871.08,950.784Z"/>
                <path d="M969.758,1006.33L969.243,1006.96C968.758,1007.55 968.234,1008.13 967.688,1008.67C962.237,1014.12 954.692,1016.74 946.45,1016.05C938.22,1015.36 930.17,1011.46 923.787,1005.08C917.409,998.697 913.527,990.663 912.856,982.452C912.186,974.239 914.821,966.713 920.277,961.262C925.734,955.8 933.258,953.156 941.462,953.82C949.663,954.483 957.692,958.36 964.069,964.738C964.444,965.112 964.818,965.498 965.184,965.895L965.723,966.482L970.992,961.506L970.482,960.935C970.101,960.508 969.696,960.082 969.281,959.668C962.525,952.912 953.543,949.191 943.993,949.191L943.989,949.191C934.434,949.192 925.452,952.916 918.695,959.679C911.937,966.431 908.216,975.412 908.216,984.966C908.216,994.521 911.937,1003.5 918.695,1010.25C925.447,1017.01 934.429,1020.73 943.982,1020.73L943.987,1020.73C953.542,1020.73 962.52,1017.01 969.27,1010.25C969.863,1009.66 970.435,1009.05 970.973,1008.43L971.481,1007.84L969.758,1006.33Z" style="fill-rule:nonzero;"/>
                <path d="M970.288,1005.73L972.012,1007.23C972.346,1007.52 972.382,1008.03 972.093,1008.36L971.585,1008.95C971.033,1009.6 970.448,1010.22 969.84,1010.82C962.938,1017.73 953.757,1021.53 943.987,1021.53L943.982,1021.53C934.214,1021.53 925.029,1017.73 918.124,1010.82C911.214,1003.92 907.409,994.736 907.409,984.966C907.409,975.196 911.214,966.013 918.124,959.108C925.034,952.194 934.218,948.385 943.988,948.384L943.993,948.384C953.758,948.384 962.942,952.189 969.851,959.097C970.277,959.522 970.693,959.96 971.084,960.397L971.594,960.969C971.885,961.295 971.863,961.793 971.546,962.093L966.277,967.068C966.12,967.217 965.911,967.296 965.695,967.288C965.479,967.281 965.276,967.187 965.13,967.028L964.59,966.441C964.232,966.053 963.865,965.675 963.499,965.308C957.263,959.072 949.416,955.272 941.397,954.624C933.44,953.98 926.14,956.535 920.847,961.833C915.556,967.119 913.01,974.421 913.66,982.387C914.316,990.415 918.12,998.268 924.357,1004.5C930.6,1010.75 938.468,1014.57 946.518,1015.25C954.511,1015.92 961.831,1013.39 967.117,1008.1C967.645,1007.57 968.151,1007.02 968.62,1006.45L969.134,1005.82C969.273,1005.65 969.474,1005.55 969.691,1005.53C969.908,1005.51 970.124,1005.58 970.288,1005.73ZM970.348,1007.92L969.854,1007.49C969.356,1008.09 968.818,1008.68 968.258,1009.24C962.643,1014.86 954.874,1017.57 946.383,1016.85C937.971,1016.15 929.74,1012.17 923.216,1005.65C916.697,999.126 912.738,990.91 912.052,982.518C911.361,974.057 914.086,966.307 919.706,960.692C925.328,955.065 933.076,952.331 941.527,953.016C949.91,953.693 958.122,957.648 964.64,964.167C965.017,964.545 965.395,964.934 965.764,965.334L969.868,961.458C969.501,961.048 969.111,960.638 968.711,960.239L968.71,960.238C962.107,953.635 953.328,949.997 943.993,949.997L943.989,949.997C934.649,949.999 925.87,953.639 919.265,960.249C912.66,966.85 909.023,975.627 909.023,984.966C909.023,994.305 912.66,1003.08 919.265,1009.68C925.865,1016.28 934.645,1019.92 943.982,1019.92L943.987,1019.92C953.326,1019.92 962.102,1016.28 968.699,1009.68C969.273,1009.11 969.826,1008.52 970.348,1007.92Z"/>
                <path d="M1020.75,1015.17C1016.18,1017.65 1012.12,1019.94 1008.99,1019.94C996.971,1019.94 996.846,1007.33 996.846,1003.28L996.912,953.614L1019.18,955.125L1021.01,951.545L996.844,951.545L996.844,931.037L996.321,931.037L989.789,951.545L979.208,951.58L979.208,955.126L990.485,953.598L990.573,1004.33C990.573,1009.03 990.573,1021.57 1005.99,1021.57C1012.13,1021.57 1016.83,1019.61 1021.8,1016.74L1020.75,1015.17Z" style="fill-rule:nonzero;"/>
                <path d="M1021.42,1014.72L1022.47,1016.29C1022.59,1016.48 1022.63,1016.7 1022.58,1016.92C1022.53,1017.14 1022.39,1017.32 1022.2,1017.43C1017.11,1020.38 1012.28,1022.38 1005.99,1022.38C999.495,1022.38 995.617,1020.22 993.279,1017.37C989.81,1013.13 989.766,1007.27 989.766,1004.33L989.68,954.521L979.316,955.926C979.086,955.957 978.853,955.887 978.677,955.734C978.502,955.581 978.401,955.359 978.401,955.126L978.401,951.58C978.401,951.135 978.761,950.775 979.205,950.773L989.199,950.741L995.553,930.792C995.659,930.457 995.97,930.23 996.321,930.23L996.844,930.23C997.29,930.23 997.651,930.591 997.651,931.037L997.651,950.739L1021.01,950.739C1021.29,950.739 1021.55,950.885 1021.7,951.124C1021.85,951.364 1021.86,951.662 1021.73,951.912L1019.9,955.492C1019.75,955.779 1019.45,955.952 1019.13,955.93L997.717,954.477L997.652,1003.28C997.652,1004.85 997.667,1007.76 998.439,1010.69C999.548,1014.89 1002.27,1019.13 1008.99,1019.13C1012.03,1019.13 1015.94,1016.86 1020.37,1014.46C1020.74,1014.26 1021.19,1014.37 1021.42,1014.72ZM1013.99,1019.49C1016.28,1018.75 1018.44,1017.7 1020.65,1016.46L1020.49,1016.23C1018.17,1017.48 1015.99,1018.66 1013.99,1019.49ZM1007.75,1020.71C1000.95,1020.22 998.08,1015.65 996.879,1011.1C996.064,1008.01 996.039,1004.94 996.039,1003.28L996.105,953.613C996.105,953.389 996.198,953.176 996.361,953.024C996.524,952.872 996.744,952.794 996.966,952.809L1018.71,954.284L1019.69,952.352L996.844,952.352C996.398,952.352 996.037,951.991 996.037,951.545L996.037,934.587L990.558,951.79C990.451,952.124 990.142,952.351 989.792,952.352L980.015,952.384L980.015,954.203L990.376,952.798C990.607,952.767 990.84,952.837 991.015,952.99C991.19,953.143 991.291,953.364 991.292,953.597L991.38,1004.32L991.38,1004.33C991.38,1007.03 991.336,1012.45 994.527,1016.34C996.629,1018.91 1000.15,1020.76 1005.99,1020.76C1006.59,1020.76 1007.18,1020.74 1007.75,1020.71Z"/>
                <path d="M1088.9,1008.5L1088.9,950.5L1088.38,950.5L1082.63,953.113L1082.63,1006.02C1076.36,1013.34 1066.82,1018.17 1058.72,1018.17C1040.69,1018.17 1040.69,1001.97 1040.69,996.224L1040.69,950.5L1040.17,950.5L1034.42,953.113L1034.42,997.269C1034.42,1013.86 1041.74,1021.57 1055.98,1021.57C1065.65,1021.57 1075.44,1016.47 1082.63,1009.16L1082.63,1009.81L1086.03,1021.05L1091.77,1018.43L1088.9,1008.5Z" style="fill-rule:nonzero;"/>
                <path d="M1082.09,1010.82C1074.87,1017.7 1065.36,1022.38 1055.98,1022.38C1048.59,1022.38 1043.01,1020.33 1039.26,1016.18C1035.55,1012.06 1033.62,1005.82 1033.62,997.269L1033.62,953.113C1033.62,952.797 1033.8,952.51 1034.09,952.379L1039.84,949.766C1039.94,949.718 1040.06,949.693 1040.17,949.693L1040.69,949.693C1041.14,949.693 1041.5,950.055 1041.5,950.5L1041.5,996.224C1041.5,1000.11 1041.43,1008.95 1047.39,1013.89C1049.92,1015.99 1053.55,1017.36 1058.72,1017.36C1066.54,1017.36 1075.71,1012.73 1081.82,1005.72L1081.82,953.113C1081.82,952.797 1082.01,952.51 1082.3,952.379L1088.04,949.766C1088.15,949.718 1088.26,949.693 1088.38,949.693L1088.9,949.693C1089.35,949.693 1089.71,950.055 1089.71,950.5L1089.71,1008.39L1092.55,1018.21C1092.66,1018.59 1092.47,1019 1092.11,1019.17L1086.36,1021.78C1086.15,1021.88 1085.9,1021.88 1085.69,1021.78C1085.48,1021.69 1085.32,1021.5 1085.25,1021.28L1082.09,1010.82ZM1088.09,951.516L1083.43,953.633L1083.43,1006.02C1083.43,1006.21 1083.37,1006.4 1083.24,1006.55C1076.81,1014.05 1067.03,1018.98 1058.72,1018.98C1053.08,1018.98 1049.13,1017.43 1046.36,1015.14C1039.96,1009.83 1039.89,1000.39 1039.89,996.224L1039.89,951.516L1035.23,953.633L1035.23,997.269C1035.23,1005.32 1036.96,1011.22 1040.46,1015.1C1043.93,1018.95 1049.13,1020.76 1055.98,1020.76C1065.44,1020.76 1075.02,1015.75 1082.05,1008.59C1082.28,1008.36 1082.63,1008.29 1082.93,1008.41C1083.24,1008.53 1083.43,1008.83 1083.43,1009.16L1083.43,1009.69L1086.53,1019.93L1090.8,1017.99L1088.12,1008.73C1088.1,1008.65 1088.09,1008.58 1088.09,1008.5L1088.09,951.516Z"/>
                <path d="M1161.17,1017.68C1154.64,1017.68 1154.64,1014.02 1154.64,1007.75L1154.64,974.307C1154.64,957.584 1147.33,950.008 1133.22,950.008C1123.81,950.008 1116.76,953.666 1109.57,960.199L1110.75,961.636C1117.28,956.019 1123.29,953.405 1130.6,953.405C1142.62,953.405 1148.37,960.589 1148.37,975.351L1148.37,983.188C1144.06,983.449 1139.36,983.841 1134.78,984.364C1117.02,986.456 1104.74,993.38 1104.74,1005.92C1104.74,1015.72 1112.31,1021.34 1122.77,1021.34C1131.13,1021.34 1141.05,1017.81 1148.37,1011.01C1148.63,1014.54 1149.68,1020.55 1156.08,1020.55C1158.56,1020.55 1161.04,1019.64 1163.52,1018.2L1163.52,1017.42C1162.74,1017.55 1161.96,1017.68 1161.17,1017.68ZM1148.37,1008.53C1141.97,1014.81 1133.74,1017.94 1126.55,1017.94C1118.06,1017.94 1109.53,1012.82 1108.83,1002.59C1107.87,988.644 1130.03,985.759 1148.37,986.412L1148.37,1008.53Z" style="fill-rule:nonzero;"/>
                <path d="M1161.17,1016.87C1161.91,1016.87 1162.65,1016.74 1163.39,1016.62C1163.62,1016.58 1163.86,1016.65 1164.04,1016.8C1164.23,1016.95 1164.33,1017.18 1164.33,1017.42L1164.33,1018.2C1164.33,1018.49 1164.18,1018.75 1163.93,1018.9C1161.31,1020.41 1158.69,1021.36 1156.08,1021.36C1150,1021.36 1148.27,1016.46 1147.73,1012.66C1140.4,1018.91 1130.86,1022.14 1122.77,1022.14C1111.81,1022.14 1103.93,1016.19 1103.93,1005.92C1103.93,999.369 1107.12,994.275 1112.65,990.555C1118.03,986.935 1125.66,984.626 1134.69,983.563L1134.69,983.562C1139.01,983.069 1143.45,982.691 1147.56,982.43L1147.56,975.351C1147.56,966.805 1145.64,960.866 1141.54,957.502C1138.83,955.284 1135.19,954.212 1130.6,954.212C1123.48,954.212 1117.63,956.778 1111.27,962.248C1111.11,962.389 1110.89,962.458 1110.68,962.44C1110.46,962.421 1110.26,962.315 1110.12,962.147L1108.95,960.71C1108.67,960.377 1108.71,959.89 1109.03,959.602C1116.38,952.922 1123.6,949.201 1133.22,949.201C1140.54,949.201 1146.09,951.209 1149.82,955.346C1153.52,959.45 1155.45,965.694 1155.45,974.307L1155.45,1007.75C1155.45,1009.59 1155.44,1011.2 1155.62,1012.56C1155.77,1013.76 1156.05,1014.75 1156.66,1015.47C1157.49,1016.43 1158.88,1016.87 1161.17,1016.87ZM1161.23,1018.48C1161.21,1018.48 1161.19,1018.49 1161.17,1018.49C1158.23,1018.49 1156.5,1017.75 1155.44,1016.51C1154.79,1015.75 1154.39,1014.79 1154.15,1013.62C1153.84,1012.04 1153.83,1010.07 1153.83,1007.75L1153.83,974.307C1153.83,966.197 1152.1,960.291 1148.62,956.427C1145.16,952.595 1140,950.815 1133.22,950.815C1124.27,950.815 1117.51,954.219 1110.68,960.284L1110.85,960.49C1117.31,955.096 1123.33,952.598 1130.6,952.598C1135.63,952.598 1139.6,953.825 1142.56,956.255C1146.96,959.863 1149.18,966.183 1149.18,975.351L1149.18,983.188C1149.18,983.615 1148.85,983.968 1148.42,983.993C1144.12,984.254 1139.43,984.644 1134.88,985.165C1129.11,985.844 1123.94,987.032 1119.59,988.767C1127.54,985.937 1138.52,985.254 1148.4,985.606C1148.83,985.621 1149.18,985.977 1149.18,986.412L1149.18,1008.53C1149.18,1008.75 1149.09,1008.96 1148.93,1009.11C1142.37,1015.54 1133.92,1018.75 1126.55,1018.75C1117.66,1018.75 1108.76,1013.36 1108.02,1002.64C1107.76,998.781 1109.14,995.7 1111.69,993.281C1107.78,996.521 1105.54,1000.71 1105.54,1005.92C1105.54,1015.25 1112.82,1020.53 1122.77,1020.53C1130.95,1020.53 1140.66,1017.07 1147.82,1010.42C1148.05,1010.21 1148.38,1010.15 1148.66,1010.26C1148.95,1010.38 1149.15,1010.65 1149.17,1010.96C1149.41,1014.17 1150.24,1019.75 1156.08,1019.75C1157.8,1019.75 1159.52,1019.27 1161.23,1018.48ZM1147.56,1008.19L1147.56,987.193C1136.89,986.873 1125.05,987.765 1117.4,991.411C1112.44,993.774 1109.27,997.305 1109.63,1002.53C1110.3,1012.29 1118.46,1017.13 1126.55,1017.13C1133.46,1017.13 1141.36,1014.15 1147.56,1008.19Z"/>
                <path d="M1205.44,950.31C1196.3,950.31 1189.24,955.928 1183.49,964.681L1183.49,950.571L1182.97,950.571L1177.22,953.184L1177.22,1020.07L1183.49,1020.07L1183.49,966.206C1187.8,959.284 1194.04,956.771 1201.75,956.771C1203.84,956.771 1206.71,957.163 1209.19,958.339L1211.84,951.094C1209.62,950.571 1207.53,950.31 1205.44,950.31L1205.44,950.31Z" style="fill-rule:nonzero;"/>
                <path d="M1205.44,949.503C1207.59,949.503 1209.74,949.771 1212.03,950.308C1212.25,950.361 1212.44,950.508 1212.55,950.711C1212.66,950.914 1212.68,951.154 1212.6,951.371L1209.95,958.616C1209.87,958.829 1209.71,959 1209.5,959.086C1209.29,959.172 1209.05,959.165 1208.85,959.068C1206.48,957.947 1203.74,957.578 1201.75,957.578C1194.41,957.578 1188.44,959.927 1184.3,966.439L1184.3,1020.07C1184.3,1020.28 1184.21,1020.49 1184.06,1020.64C1183.91,1020.79 1183.71,1020.88 1183.49,1020.88L1177.22,1020.88C1176.78,1020.88 1176.42,1020.51 1176.42,1020.07L1176.42,953.184C1176.42,952.868 1176.6,952.58 1176.89,952.45L1182.64,949.837C1182.74,949.789 1182.86,949.764 1182.97,949.764L1183.49,949.764C1183.94,949.764 1184.3,950.125 1184.3,950.571L1184.3,962.093C1189.94,954.33 1196.8,949.503 1205.44,949.503ZM1205.44,951.117C1198.54,951.117 1192.88,954.446 1188.09,959.921C1191.89,957.101 1196.49,955.965 1201.75,955.965C1203.71,955.965 1206.34,956.299 1208.73,957.257L1210.77,951.683C1208.94,951.306 1207.19,951.117 1205.44,951.117ZM1183.07,965.366C1182.84,965.221 1182.69,964.965 1182.69,964.681L1182.69,951.587L1178.03,953.703L1178.03,1019.26L1182.69,1019.26L1182.68,966.206C1182.68,966.056 1182.72,965.908 1182.8,965.78C1182.89,965.64 1182.98,965.502 1183.07,965.366Z"/>
                <path d="M1271.95,951.325L1249.71,1011.99L1249.83,1011.03L1223.83,951.325L1217.04,951.325L1246.56,1019.13L1241.86,1030.88C1237.55,1041.73 1222.34,1043.3 1216.2,1043.3C1214.76,1043.3 1212.93,1043.17 1211.23,1042.78L1210.41,1050.35C1221.64,1050.35 1238.33,1045.78 1244.34,1030.88L1248.56,1021.06L1248.66,1020.91L1248.79,1020.58L1249.16,1019.56L1249.8,1017.86L1274.52,951.388L1271.95,951.325Z" style="fill-rule:nonzero;"/>
                <path d="M1249.89,1009.15L1271.19,951.048C1271.32,950.723 1271.63,950.51 1271.97,950.519L1274.54,950.582C1274.8,950.588 1275.04,950.72 1275.19,950.936C1275.33,951.152 1275.37,951.425 1275.28,951.67L1250.55,1018.14L1249.92,1019.84L1249.54,1020.86C1249.54,1020.86 1249.54,1020.87 1249.54,1020.88L1249.42,1021.19L1248.66,1021.72L1249.3,1021.38L1249.33,1021.36L1249.27,1021.44L1245.09,1031.19C1238.93,1046.42 1221.9,1051.15 1210.41,1051.15C1210.18,1051.15 1209.96,1051.06 1209.81,1050.89C1209.65,1050.72 1209.58,1050.49 1209.61,1050.26L1210.43,1042.69C1210.46,1042.46 1210.58,1042.25 1210.77,1042.12C1210.95,1041.99 1211.19,1041.94 1211.42,1041.99C1213.05,1042.37 1214.81,1042.49 1216.2,1042.49C1219.8,1042.49 1226.61,1041.95 1232.39,1039.21C1236.14,1037.43 1239.46,1034.72 1241.11,1030.59L1241.11,1030.58L1245.69,1019.14L1216.3,951.647C1216.19,951.398 1216.21,951.111 1216.36,950.883C1216.51,950.656 1216.77,950.519 1217.04,950.519L1223.83,950.519C1224.15,950.519 1224.44,950.709 1224.57,951.003L1249.89,1009.15ZM1249.24,1021.5L1248.56,1021.86L1248.12,1021.04C1248.09,1020.99 1248.06,1020.93 1248.03,1020.87L1247.89,1020.6L1247.94,1020.54L1248.03,1020.3C1248.03,1020.3 1248.03,1020.3 1248.03,1020.3L1248.41,1019.28L1249.04,1017.58L1273.37,952.167L1272.51,952.146L1250.46,1012.27C1250.32,1012.65 1249.91,1012.87 1249.52,1012.77C1249.12,1012.68 1248.86,1012.3 1248.91,1011.89L1249,1011.15L1223.3,952.132L1218.27,952.132L1247.3,1018.8C1247.39,1019 1247.39,1019.23 1247.31,1019.43L1242.61,1031.18C1240.81,1035.72 1237.19,1038.72 1233.08,1040.67C1227.05,1043.52 1219.96,1044.11 1216.2,1044.11C1214.96,1044.11 1213.43,1044.01 1211.94,1043.75L1211.31,1049.53C1222.26,1049.3 1237.88,1044.74 1243.59,1030.58L1243.6,1030.57L1247.82,1020.74C1247.71,1020.99 1247.74,1021.27 1247.89,1021.5C1248.04,1021.73 1248.29,1021.86 1248.56,1021.86C1248.84,1021.86 1249.09,1021.73 1249.24,1021.5Z"/>
                <path d="M1353.93,982.375L1348.71,980.025C1341.78,976.89 1332.25,973.233 1332.25,964.61C1332.25,957.817 1337.76,950.804 1347.82,950.804C1356.32,950.804 1363.14,958.871 1367.71,962.66L1370.52,955.728C1365.04,952.461 1356.67,949.979 1348.45,949.979C1336.16,949.979 1326.76,956.12 1326.76,966.57C1326.76,977.544 1336.95,982.117 1346.23,986.296L1351.45,988.648C1359.68,992.305 1367.78,995.963 1367.78,1004.85C1367.78,1013.6 1360.01,1020.55 1349.16,1020.55C1339.5,1020.55 1334.11,1012.38 1328.49,1006.76L1325.19,1014.51C1332.77,1019.61 1341.26,1021.57 1348.71,1021.57C1363.08,1021.57 1373.13,1014.38 1373.13,1002.75C1373.13,990.998 1362.68,986.296 1353.93,982.375L1353.93,982.375Z" style="fill-rule:nonzero;"/>
                <path d="M1354.26,981.639L1354.26,981.64C1358.7,983.63 1363.57,985.828 1367.34,989.011C1371.22,992.292 1373.94,996.603 1373.94,1002.75C1373.94,1014.81 1363.6,1022.37 1348.71,1022.37C1341.12,1022.37 1332.46,1020.37 1324.74,1015.18C1324.42,1014.97 1324.3,1014.55 1324.45,1014.2L1327.75,1006.44C1327.85,1006.2 1328.07,1006.02 1328.33,1005.97C1328.6,1005.92 1328.87,1006 1329.06,1006.19C1331.85,1008.98 1334.59,1012.41 1337.83,1015.14C1340.94,1017.77 1344.54,1019.75 1349.16,1019.75C1359.5,1019.75 1366.97,1013.19 1366.97,1004.85C1366.97,1000.68 1365.06,997.743 1362.19,995.413C1359.19,992.972 1355.17,991.183 1351.12,989.385L1351.12,989.384L1345.89,987.032C1341.19,984.913 1336.26,982.685 1332.5,979.605C1328.61,976.417 1325.95,972.33 1325.95,966.57C1325.95,955.687 1335.66,949.172 1348.45,949.172C1356.83,949.172 1365.35,951.707 1370.93,955.034C1371.28,955.238 1371.42,955.662 1371.27,956.031L1368.46,962.963C1368.36,963.202 1368.16,963.38 1367.91,963.442C1367.66,963.505 1367.39,963.445 1367.2,963.281C1364.92,961.394 1362.08,958.439 1358.76,955.958C1355.55,953.57 1351.89,951.611 1347.82,951.611C1338.31,951.611 1333.05,958.188 1333.05,964.61C1333.05,968.643 1335.32,971.495 1338.36,973.725C1341.56,976.076 1345.62,977.744 1349.04,979.29L1354.26,981.639ZM1353.6,983.112C1353.6,983.111 1353.6,983.111 1353.6,983.111L1348.38,980.761L1348.37,980.76C1344.87,979.171 1340.7,977.443 1337.4,975.026C1333.94,972.488 1331.44,969.2 1331.44,964.61C1331.44,959.932 1333.9,955.134 1338.56,952.367C1331.95,954.719 1327.57,959.622 1327.57,966.57C1327.57,971.785 1330,975.471 1333.53,978.357C1337.18,981.352 1341.98,983.5 1346.56,985.561L1351.78,987.912C1355.96,989.77 1360.11,991.638 1363.21,994.161C1366.45,996.796 1368.59,1000.13 1368.59,1004.85C1368.59,1011.17 1364.74,1016.63 1358.62,1019.41C1366.99,1016.9 1372.33,1011.03 1372.33,1002.75C1372.33,997.15 1369.83,993.232 1366.29,990.243C1362.64,987.155 1357.91,985.042 1353.6,983.112ZM1343.69,1020.46C1341.11,1019.58 1338.85,1018.12 1336.79,1016.38C1333.84,1013.89 1331.3,1010.83 1328.76,1008.19L1326.2,1014.21C1331.82,1017.86 1337.93,1019.77 1343.69,1020.46ZM1353.44,951.082C1355.68,951.936 1357.78,953.219 1359.72,954.664C1362.67,956.867 1365.25,959.438 1367.38,961.318L1369.51,956.074C1365.28,953.692 1359.5,951.789 1353.44,951.082ZM1353.93,983.182C1353.93,983.182 1353.39,981.73 1353.26,981.928L1353.93,983.182Z"/>
                <path d="M1419.28,949.978C1410.4,949.978 1401.91,954.028 1395.25,960.952L1395.25,950.5L1394.72,950.5L1388.98,953.113L1388.98,1049.78L1395.25,1049.78L1395.25,1013.08C1400.99,1018.56 1408.31,1021.57 1416.28,1021.57C1433.65,1021.57 1448.68,1007.07 1448.68,984.859C1448.68,964.48 1436.27,949.978 1419.28,949.978L1419.28,949.978ZM1416.15,1019.48C1407.26,1019.48 1399.43,1014.51 1395.25,1006.42L1395.25,964.218C1401.39,957.165 1410.11,952.279 1417.69,952.279C1431.14,952.279 1441.62,966.046 1441.62,985.903C1441.62,1006.42 1430.39,1019.48 1416.15,1019.48L1416.15,1019.48Z" style="fill-rule:nonzero;"/>
                <path d="M1419.28,949.171C1436.69,949.171 1449.48,963.972 1449.48,984.859C1449.48,1007.58 1434.06,1022.38 1416.28,1022.38C1408.72,1022.38 1401.73,1019.74 1396.05,1014.89L1396.05,1049.78C1396.05,1050.23 1395.69,1050.59 1395.25,1050.59L1388.98,1050.59C1388.53,1050.59 1388.17,1050.23 1388.17,1049.78L1388.17,953.113C1388.17,952.797 1388.35,952.51 1388.64,952.379L1394.39,949.766C1394.49,949.718 1394.61,949.693 1394.72,949.693L1395.25,949.693C1395.69,949.693 1396.05,950.055 1396.05,950.5L1396.05,959.015C1402.65,952.771 1410.79,949.171 1419.28,949.171ZM1419.28,950.784C1410.61,950.784 1402.33,954.753 1395.83,961.512C1395.6,961.749 1395.25,961.823 1394.94,961.7C1394.64,961.577 1394.44,961.281 1394.44,960.952L1394.44,951.516L1389.78,953.633L1389.78,1048.98L1394.44,1048.98L1394.44,1013.08C1394.44,1012.75 1394.63,1012.46 1394.93,1012.33C1395.23,1012.21 1395.57,1012.27 1395.8,1012.49C1401.4,1017.83 1408.52,1020.76 1416.28,1020.76C1433.25,1020.76 1447.87,1006.55 1447.87,984.859C1447.87,964.987 1435.84,950.784 1419.28,950.784ZM1416.15,1020.28C1416.15,1020.28 1415.96,1018.53 1415.58,1018.91L1416.15,1020.28C1406.96,1020.28 1398.85,1015.16 1394.53,1006.78C1394.47,1006.67 1394.44,1006.54 1394.44,1006.42L1394.44,964.218C1394.44,964.024 1394.51,963.835 1394.64,963.689C1400.94,956.45 1409.91,951.472 1417.69,951.472C1431.51,951.472 1442.43,965.504 1442.43,985.903C1442.43,1006.97 1430.77,1020.28 1416.15,1020.28ZM1416.15,1018.67C1430.01,1018.67 1440.82,1005.87 1440.82,985.903C1440.82,966.587 1430.78,953.086 1417.69,953.086C1410.39,953.086 1402.02,957.775 1396.05,964.522L1396.05,1006.22C1400.11,1013.94 1407.63,1018.67 1416.15,1018.67Z"/>
                <path d="M1517.22,1017.68C1510.69,1017.68 1510.69,1014.02 1510.69,1007.75L1510.69,974.307C1510.69,957.584 1503.37,950.008 1489.27,950.008C1479.86,950.008 1472.8,953.666 1465.62,960.199L1466.8,961.636C1473.33,956.019 1479.34,953.405 1486.65,953.405C1498.67,953.405 1504.42,960.589 1504.42,975.351L1504.42,983.188C1500.11,983.449 1495.4,983.841 1490.83,984.364C1473.06,986.456 1460.79,993.38 1460.79,1005.92C1460.79,1015.72 1468.36,1021.34 1478.81,1021.34C1487.17,1021.34 1497.1,1017.81 1504.42,1011.01C1504.68,1014.54 1505.73,1020.55 1512.12,1020.55C1514.61,1020.55 1517.09,1019.64 1519.57,1018.2L1519.57,1017.42C1518.79,1017.55 1518,1017.68 1517.22,1017.68ZM1504.42,1008.53C1498.02,1014.81 1489.79,1017.94 1482.6,1017.94C1474.11,1017.94 1465.58,1012.82 1464.87,1002.59C1463.92,988.644 1486.07,985.759 1504.42,986.412L1504.42,1008.53Z" style="fill-rule:nonzero;"/>
                <path d="M1517.22,1016.87C1517.96,1016.87 1518.7,1016.74 1519.44,1016.62C1519.67,1016.58 1519.91,1016.65 1520.09,1016.8C1520.27,1016.95 1520.38,1017.18 1520.38,1017.42L1520.38,1018.2C1520.38,1018.49 1520.22,1018.75 1519.98,1018.9C1517.36,1020.41 1514.74,1021.36 1512.12,1021.36C1506.05,1021.36 1504.32,1016.46 1503.78,1012.66C1496.44,1018.91 1486.91,1022.14 1478.81,1022.14C1467.86,1022.14 1459.98,1016.19 1459.98,1005.92C1459.98,999.369 1463.17,994.275 1468.69,990.555C1474.07,986.935 1481.71,984.626 1490.74,983.563L1490.74,983.562C1495.06,983.069 1499.5,982.691 1503.61,982.43L1503.61,975.351C1503.61,966.805 1501.69,960.866 1497.59,957.502C1494.88,955.284 1491.24,954.212 1486.65,954.212C1479.53,954.212 1473.68,956.778 1467.32,962.248C1467.16,962.389 1466.94,962.458 1466.72,962.44C1466.51,962.421 1466.31,962.315 1466.17,962.147L1464.99,960.71C1464.72,960.377 1464.76,959.89 1465.08,959.602C1472.42,952.922 1479.64,949.201 1489.27,949.201C1496.59,949.201 1502.14,951.209 1505.87,955.346C1509.57,959.45 1511.5,965.694 1511.5,974.307L1511.5,1007.75C1511.5,1009.59 1511.49,1011.2 1511.66,1012.56C1511.82,1013.76 1512.1,1014.75 1512.71,1015.47C1513.54,1016.43 1514.93,1016.87 1517.22,1016.87ZM1517.28,1018.48C1517.26,1018.48 1517.24,1018.49 1517.22,1018.49C1514.28,1018.49 1512.54,1017.75 1511.49,1016.51C1510.84,1015.75 1510.43,1014.79 1510.2,1013.62C1509.89,1012.04 1509.88,1010.07 1509.88,1007.75L1509.88,974.307C1509.88,966.197 1508.15,960.291 1504.67,956.427C1501.21,952.595 1496.05,950.815 1489.27,950.815C1480.32,950.815 1473.56,954.219 1466.73,960.284L1466.9,960.49C1473.36,955.096 1479.38,952.598 1486.65,952.598C1491.68,952.598 1495.65,953.825 1498.61,956.255C1503.01,959.863 1505.23,966.183 1505.23,975.351L1505.23,983.188C1505.23,983.615 1504.89,983.968 1504.47,983.993C1500.17,984.254 1495.48,984.644 1490.92,985.165C1485.16,985.844 1479.98,987.032 1475.63,988.767C1483.59,985.937 1494.57,985.254 1504.45,985.606C1504.88,985.621 1505.23,985.977 1505.23,986.412L1505.23,1008.53C1505.23,1008.75 1505.14,1008.96 1504.98,1009.11C1498.42,1015.54 1489.97,1018.75 1482.6,1018.75C1473.71,1018.75 1464.8,1013.36 1464.07,1002.64C1463.8,998.781 1465.18,995.7 1467.74,993.281C1463.83,996.521 1461.59,1000.71 1461.59,1005.92C1461.59,1015.25 1468.86,1020.53 1478.81,1020.53C1487,1020.53 1496.71,1017.07 1503.87,1010.42C1504.1,1010.21 1504.42,1010.15 1504.71,1010.26C1505,1010.38 1505.2,1010.65 1505.22,1010.96C1505.46,1014.17 1506.29,1019.75 1512.12,1019.75C1513.85,1019.75 1515.56,1019.27 1517.28,1018.48ZM1503.61,1008.19L1503.61,987.193C1492.94,986.873 1481.1,987.765 1473.44,991.411C1468.49,993.774 1465.32,997.305 1465.68,1002.53C1466.35,1012.29 1474.51,1017.13 1482.6,1017.13C1489.51,1017.13 1497.41,1014.15 1503.61,1008.19Z"/>
                <path d="M1591.28,1006.33L1590.76,1006.96C1590.28,1007.55 1589.75,1008.13 1589.21,1008.67C1583.76,1014.12 1576.21,1016.74 1567.97,1016.05C1559.74,1015.36 1551.69,1011.46 1545.31,1005.08C1538.93,998.697 1535.05,990.663 1534.38,982.452C1533.71,974.239 1536.34,966.713 1541.8,961.262C1547.25,955.8 1554.78,953.156 1562.98,953.82C1571.18,954.483 1579.21,958.36 1585.59,964.738C1585.96,965.112 1586.34,965.498 1586.7,965.895L1587.24,966.482L1592.51,961.506L1592,960.935C1591.62,960.508 1591.22,960.082 1590.8,959.668C1584.05,952.912 1575.06,949.191 1565.51,949.191L1565.51,949.191C1555.95,949.192 1546.97,952.916 1540.22,959.679C1533.46,966.431 1529.74,975.412 1529.74,984.966C1529.74,994.521 1533.46,1003.5 1540.22,1010.25C1546.97,1017.01 1555.95,1020.73 1565.5,1020.73L1565.51,1020.73C1575.06,1020.73 1584.04,1017.01 1590.79,1010.25C1591.38,1009.66 1591.95,1009.05 1592.49,1008.43L1593,1007.84L1591.28,1006.33Z" style="fill-rule:nonzero;"/>
                <path d="M1591.81,1005.73L1593.53,1007.23C1593.87,1007.52 1593.9,1008.03 1593.61,1008.36L1593.11,1008.95C1592.55,1009.6 1591.97,1010.22 1591.36,1010.82C1584.46,1017.73 1575.28,1021.53 1565.51,1021.53L1565.5,1021.53C1555.73,1021.53 1546.55,1017.73 1539.64,1010.82C1532.73,1003.92 1528.93,994.736 1528.93,984.966C1528.93,975.196 1532.73,966.013 1539.64,959.108C1546.55,952.194 1555.74,948.385 1565.51,948.384L1565.51,948.384C1575.28,948.384 1584.46,952.189 1591.37,959.097C1591.8,959.522 1592.21,959.96 1592.6,960.397L1593.11,960.969C1593.4,961.295 1593.38,961.793 1593.07,962.093L1587.8,967.068C1587.64,967.217 1587.43,967.296 1587.22,967.288C1587,967.281 1586.8,967.187 1586.65,967.028L1586.11,966.441C1585.75,966.053 1585.38,965.675 1585.02,965.308C1578.78,959.072 1570.94,955.272 1562.92,954.624C1554.96,953.98 1547.66,956.535 1542.37,961.833C1537.08,967.119 1534.53,974.421 1535.18,982.387C1535.84,990.415 1539.64,998.268 1545.88,1004.5C1552.12,1010.75 1559.99,1014.57 1568.04,1015.25C1576.03,1015.92 1583.35,1013.39 1588.64,1008.1C1589.16,1007.57 1589.67,1007.02 1590.14,1006.45L1590.65,1005.82C1590.79,1005.65 1590.99,1005.55 1591.21,1005.53C1591.43,1005.51 1591.64,1005.58 1591.81,1005.73ZM1591.87,1007.92L1591.37,1007.49C1590.88,1008.09 1590.34,1008.68 1589.78,1009.24C1584.16,1014.86 1576.39,1017.57 1567.9,1016.85C1559.49,1016.15 1551.26,1012.17 1544.74,1005.65C1538.22,999.126 1534.26,990.91 1533.57,982.518C1532.88,974.057 1535.61,966.307 1541.23,960.692C1546.85,955.065 1554.6,952.331 1563.05,953.016C1571.43,953.693 1579.64,957.648 1586.16,964.167C1586.54,964.545 1586.91,964.934 1587.28,965.334L1591.39,961.458C1591.02,961.048 1590.63,960.638 1590.23,960.239L1590.23,960.238C1583.63,953.635 1574.85,949.997 1565.51,949.997L1565.51,949.997C1556.17,949.999 1547.39,953.639 1540.79,960.249C1534.18,966.85 1530.54,975.627 1530.54,984.966C1530.54,994.305 1534.18,1003.08 1540.79,1009.68C1547.38,1016.28 1556.16,1019.92 1565.5,1019.92L1565.51,1019.92C1574.85,1019.92 1583.62,1016.28 1590.22,1009.68C1590.79,1009.11 1591.35,1008.52 1591.87,1007.92Z"/>
                <path d="M1660.83,1009.22C1649.57,1020.49 1630.36,1018.92 1617.12,1005.67C1609.47,998.023 1605.75,988.373 1606.15,979.416L1660.64,979.416C1660.63,978.69 1660.61,977.98 1660.58,977.285C1659.75,961.04 1650.96,951.234 1637.47,949.998C1637.43,949.998 1637.4,949.982 1637.36,949.982C1637.05,949.967 1636.74,949.937 1636.43,949.921C1636.26,949.905 1636.09,949.905 1635.92,949.889C1635.75,949.891 1635.58,949.875 1635.4,949.875L1635.4,949.891C1627.55,949.752 1619.66,953.489 1612.37,960.777C1598.66,974.491 1598.66,996.788 1612.37,1010.5C1619.01,1017.14 1627.85,1020.8 1637.23,1020.8C1646.62,1020.8 1655.45,1017.14 1662.09,1010.5C1663.25,1009.34 1664.33,1008.11 1665.31,1006.81L1662.93,1006.81C1662.3,1007.66 1661.59,1008.46 1660.83,1009.22L1660.83,1009.22ZM1613.65,962.043C1618.7,956.978 1625.36,954.508 1632.36,954.508C1632.36,954.508 1650.93,953.009 1653.43,973.362C1653.47,973.516 1653.48,973.686 1653.5,973.856C1653.59,974.629 1653.65,975.446 1653.66,976.28C1653.68,976.342 1653.68,976.389 1653.68,976.45C1653.7,976.729 1653.71,977.006 1653.71,977.285L1606.34,977.285C1607.01,971.587 1609.44,966.26 1613.65,962.043L1613.65,962.043Z" style="fill-rule:nonzero;"/>
                <path d="M1635.4,950.682L1636.2,949.875L1635.4,950.698L1635.38,950.698C1627.73,950.563 1620.05,954.24 1612.94,961.348C1599.55,974.747 1599.55,996.532 1612.94,1009.93C1619.43,1016.42 1628.06,1020 1637.23,1020C1646.41,1020 1655.04,1016.42 1661.52,1009.93C1662.26,1009.19 1662.97,1008.42 1663.64,1007.62L1663.33,1007.62C1662.74,1008.38 1662.09,1009.1 1661.4,1009.79C1649.85,1021.35 1630.14,1019.83 1616.54,1006.24C1608.73,998.419 1604.93,988.541 1605.35,979.38C1605.36,978.949 1605.72,978.609 1606.15,978.609L1659.82,978.609C1659.81,978.175 1659.8,977.746 1659.78,977.323C1658.97,961.559 1650.49,952.001 1637.39,950.801L1637.47,950.805L1637.24,950.777C1637.26,950.782 1637.29,950.786 1637.32,950.788C1637.01,950.772 1636.7,950.742 1636.39,950.727L1636.36,950.724C1636.2,950.71 1636.04,950.709 1635.89,950.696C1635.74,950.696 1635.58,950.683 1635.41,950.682C1635.85,950.674 1636.2,950.316 1636.2,949.875C1636.2,949.43 1635.84,949.068 1635.4,949.068C1635.58,949.068 1635.75,949.084 1635.91,949.083C1635.94,949.082 1635.97,949.084 1635.99,949.086C1636.16,949.101 1636.32,949.102 1636.48,949.116C1636.79,949.131 1637.09,949.161 1637.4,949.177L1637.36,949.176L1637.61,949.206C1637.58,949.201 1637.56,949.197 1637.54,949.195C1651.43,950.467 1660.53,960.52 1661.39,977.243L1661.39,977.25C1661.42,977.951 1661.43,978.667 1661.45,979.399C1661.45,979.615 1661.37,979.825 1661.22,979.98C1661.07,980.135 1660.86,980.223 1660.64,980.223L1606.93,980.223C1606.78,988.754 1610.43,997.846 1617.68,1005.1C1630.59,1018 1649.29,1019.63 1660.26,1008.65C1660.03,1008.88 1659.96,1009.23 1660.09,1009.53C1660.21,1009.83 1660.5,1010.02 1660.83,1010.02L1660.26,1008.65C1660.99,1007.92 1661.67,1007.15 1662.28,1006.33C1662.43,1006.12 1662.67,1006 1662.93,1006L1665.31,1006C1665.61,1006 1665.89,1006.18 1666.03,1006.45C1666.16,1006.72 1666.13,1007.05 1665.95,1007.29C1664.95,1008.62 1663.85,1009.89 1662.66,1011.07C1655.87,1017.87 1646.84,1021.61 1637.23,1021.61C1627.63,1021.61 1618.59,1017.86 1611.8,1011.07C1597.78,997.043 1597.78,974.235 1611.8,960.207C1619.27,952.739 1627.37,948.942 1635.41,949.084L1635.4,950.682ZM1635.38,950.68C1635.28,950.547 1634.59,949.699 1634.59,949.876C1634.59,950.552 1635.28,950.667 1635.38,950.68ZM1613.08,961.473C1618.28,956.259 1625.13,953.708 1632.32,953.701C1632.94,953.66 1642,953.176 1648.36,959.753C1651.16,962.653 1653.45,966.925 1654.23,973.226C1654.26,973.397 1654.28,973.584 1654.3,973.763C1654.39,974.561 1654.45,975.404 1654.47,976.265L1654.45,976.08L1654.49,976.45L1654.49,976.405C1654.5,976.699 1654.52,976.991 1654.52,977.285C1654.52,977.73 1654.16,978.092 1653.71,978.092L1606.34,978.092C1606.11,978.092 1605.88,977.993 1605.73,977.82C1605.58,977.648 1605.51,977.418 1605.53,977.189C1606.23,971.313 1608.74,965.822 1613.08,961.473ZM1614.23,962.613C1614.23,962.613 1614.23,962.614 1614.22,962.614C1610.37,966.476 1608.06,971.299 1607.26,976.478L1652.87,976.478L1652.87,976.45L1652.87,976.439C1652.86,976.392 1652.86,976.344 1652.86,976.296C1652.84,975.489 1652.78,974.7 1652.69,973.953L1652.69,973.931C1652.68,973.791 1652.67,973.65 1652.64,973.523C1652.64,973.503 1652.63,973.482 1652.63,973.461C1651.91,967.574 1649.81,963.577 1647.2,960.875C1641.14,954.608 1632.42,955.312 1632.42,955.312C1632.4,955.314 1632.38,955.315 1632.36,955.315C1625.57,955.315 1619.12,957.703 1614.23,962.613Z"/>
            </g>
        </g>
        <g transform="matrix(1.74232,0,0,1.74232,-953.023,-551.841)">
            <g id="Icon">
                <path d="M1276.7,772.993C1276.7,772.993 1276.77,750.827 1276.71,739.384C1273.02,728.682 1265.73,725.029 1258.28,722.582C1252.71,720.754 1247.05,719.531 1242.41,717.019C1234.76,712.882 1231.32,709.03 1229.66,706.009C1227.99,702.981 1228.1,700.728 1227.79,699.619C1227.52,698.67 1227.89,697.656 1228.71,697.101C1229.53,696.547 1230.6,696.575 1231.39,697.173C1235.78,700.508 1240.11,701.357 1244.23,701.999C1247.34,702.483 1250.35,702.856 1253.23,703.824C1265.5,707.944 1272.57,715.208 1276.54,721.26C1276.42,713.698 1276.28,704.147 1276.22,699.546C1274,697.512 1271.29,694.428 1270.14,692.389C1268.38,690.69 1266.12,689.389 1263.65,687.936C1259.31,685.384 1254.34,682.449 1249.74,676.977C1249.68,676.909 1249.63,676.838 1249.58,676.764C1249.07,675.979 1248,675.05 1247.31,674.217C1246.77,673.566 1246.39,672.925 1246.22,672.385L1246.06,671.467L1246.14,670.713L1246.38,670.069L1246.76,669.505C1247.95,668.119 1249.44,667.577 1251.08,667.394C1251.9,667.301 1252.77,667.313 1253.6,667.256C1254.06,667.225 1254.51,667.198 1254.9,666.987C1255.99,666.388 1256.9,665.234 1257.9,664.141C1259.31,662.595 1260.82,661.129 1262.62,660.381C1264.39,659.643 1266.37,659.486 1268.33,659.471C1269.82,659.459 1271.28,659.55 1272.52,659.287C1273.4,659.101 1274.21,658.536 1275.13,658.061C1276.55,657.329 1278.11,656.71 1279.99,656.704L1280.01,656.704C1281.89,656.71 1283.45,657.329 1284.87,658.061C1285.79,658.536 1286.6,659.101 1287.48,659.287C1288.72,659.55 1290.18,659.459 1291.67,659.471C1293.63,659.486 1295.61,659.643 1297.38,660.381C1299.18,661.129 1300.69,662.595 1302.1,664.141C1303.1,665.234 1304.01,666.388 1305.1,666.987C1305.49,667.198 1305.94,667.225 1306.4,667.256C1307.23,667.313 1308.1,667.301 1308.92,667.394C1310.56,667.577 1312.05,668.119 1313.24,669.505L1313.62,670.069L1313.86,670.713L1313.94,671.467L1313.78,672.385C1313.61,672.925 1313.24,673.566 1312.69,674.217C1312,675.05 1310.93,675.979 1310.42,676.764C1310.37,676.838 1310.32,676.909 1310.26,676.977C1305.66,682.449 1300.69,685.384 1296.35,687.936C1293.88,689.389 1291.62,690.689 1289.86,692.389C1288.71,694.428 1286,697.512 1283.78,699.546C1283.72,704.147 1283.58,713.698 1283.46,721.26C1287.43,715.207 1294.5,707.943 1306.77,703.824C1309.65,702.856 1312.66,702.483 1315.77,701.999C1319.89,701.357 1324.22,700.508 1328.61,697.173C1329.4,696.575 1330.48,696.547 1331.29,697.101C1332.11,697.656 1332.48,698.67 1332.21,699.619C1331.9,700.728 1332.01,702.981 1330.34,706.009C1328.68,709.03 1325.24,712.882 1317.59,717.019C1312.95,719.531 1307.29,720.754 1301.72,722.582C1294.27,725.029 1286.98,728.682 1283.29,739.385C1283.23,750.827 1283.3,772.993 1283.3,772.993C1283.3,773.603 1283.06,774.189 1282.63,774.621C1282.19,775.053 1281.61,775.296 1281,775.296L1279,775.296C1278.39,775.296 1277.81,775.053 1277.37,774.621C1276.94,774.189 1276.7,773.603 1276.7,772.993ZM1279,773L1281,773C1281,773 1280.93,750.333 1281,739C1287.58,719.23 1305.17,721.126 1316.5,715C1330.63,707.36 1329.43,701.043 1330,699C1322.09,705.015 1314.4,703.684 1307.5,706C1285.14,713.509 1281,732 1281,732C1281,732 1281.41,705.543 1281.5,698.5C1283.73,696.611 1286.97,693.063 1288,691C1292.82,686.142 1301.17,684.22 1308.5,675.5C1309.49,673.995 1312.31,671.949 1311.5,671C1309.57,668.747 1306.24,670.226 1304,669C1301.42,667.583 1299.5,663.75 1296.5,662.5C1293.5,661.25 1289.75,662.116 1287,661.533C1284.88,661.083 1282.96,659.009 1280,659C1277.04,659.009 1275.12,661.083 1273,661.533C1270.25,662.116 1266.5,661.25 1263.5,662.5C1260.5,663.75 1258.58,667.583 1256,669C1253.77,670.226 1250.43,668.747 1248.5,671C1247.69,671.949 1250.51,673.995 1251.5,675.5C1258.83,684.22 1267.18,686.142 1272,691C1273.03,693.063 1276.27,696.611 1278.5,698.5C1278.59,705.543 1279,732 1279,732C1279,732 1274.86,713.509 1252.5,706C1245.6,703.684 1237.91,705.015 1230,699C1230.57,701.043 1229.37,707.36 1243.5,715C1254.83,721.126 1272.42,719.23 1279,739C1279.07,750.333 1279,773 1279,773ZM1275.5,689.5C1275.5,689.5 1262.21,674.804 1259.5,671.5C1259.31,670.04 1260.74,667.061 1262,668C1262.64,669.006 1275.5,689.5 1275.5,689.5ZM1270,686.5C1270,686.5 1257.76,678.877 1253,672.5C1252.3,671.565 1255.6,671.758 1256.5,672.5C1259.33,674.833 1270,686.5 1270,686.5ZM1290,686.5C1290,686.5 1300.67,674.833 1303.5,672.5C1304.4,671.758 1307.7,671.565 1307,672.5C1302.24,678.877 1290,686.5 1290,686.5ZM1275,685.445C1275,685.445 1265.67,670.417 1264.5,667C1264.08,665.768 1267.07,663.27 1267.5,664.5C1268.78,668.196 1275,685.445 1275,685.445ZM1279,662C1279.01,662.879 1279,687 1279,687C1279,687 1275.77,668.594 1275,664.5C1275.57,663.015 1277.36,661.805 1279,662ZM1277,686C1277,686 1270.75,668 1270,664.5C1269.78,663.469 1272.78,664.469 1273,665.5C1273.83,669.436 1277,686 1277,686ZM1284.5,689.5C1284.5,689.5 1297.36,669.006 1298,668C1299.26,667.061 1300.69,670.04 1300.5,671.5C1297.79,674.804 1284.5,689.5 1284.5,689.5ZM1285,685.445C1285,685.445 1291.22,668.196 1292.5,664.5C1292.93,663.27 1295.92,665.768 1295.5,667C1294.33,670.417 1285,685.445 1285,685.445ZM1283,686C1283,686 1286.17,669.436 1287,665.5C1287.22,664.469 1290.22,663.469 1290,664.5C1289.25,668 1283,686 1283,686ZM1281,662C1282.64,661.805 1284.43,663.015 1285,664.5C1284.23,668.594 1281,687 1281,687C1281,687 1280.99,662.879 1281,662Z" style="fill:rgb(111,151,137);"/>
            </g>
        </g>
    </g>
</svg>
